<svg viewBox="0 0 280 170"><path
		fill-rule="evenodd"
		d="M27.6 61.4V11.7c0-3.3-.1-4-.7-5.4-.6-1.4-1.8-2.1-4.1-2.3-1.7-.1-2.5-.9-2.5-2.2 0-1 1-1.8 2.8-1.8h23.7c22 0 36.9 11.3 36.9 28.3 0 14.7-10.9 22.9-30.2 22.9a58.3 58.3 0 0 1-12.2-1c-1.5 0-2 .7-2 2.3v8.9c0 3.2 0 4 .6 5.3.5 1.5 1.8 2.3 4.1 2.4 1.7 0 2.5.8 2.5 2.1 0 1.2-.9 1.8-2.8 1.8H23c-1.8 0-2.7-.6-2.7-1.9 0-1.2.8-2 2.5-2 2.3-.2 3.4-.7 4-2.4.7-1 .8-1.9.8-5.3ZM46 4.8c-5 0-6.9 1.3-6.9 4.9v30.5c0 4.3 3.4 6.1 11 6.1 6.5 0 10.3-1 14-3.8 4.3-3.3 6.8-8.7 6.8-15.2C71 13.6 61 4.8 46 4.8Zm50 68.2H81.2c-1.9 0-2.7-.6-2.7-1.9 0-1.2.6-1.8 2.5-2 2-.2 3.3-.7 4.5-2.4 1-1.2 1.4-2 2.7-5.3l23.6-59.2c.8-1.9 1-2.2 2.2-2.2h6.9c.5 0 1.1.2 1.3.4L123 2l23.6 59.4c1.3 3.3 1.7 4.1 2.7 5.3a5.9 5.9 0 0 0 4.5 2.4c1.9.2 2.5.8 2.5 2.1 0 1.2-.8 1.8-2.7 1.8h-21.9c-1.8 0-2.7-.6-2.7-1.9 0-1.2.8-2 2.5-2 2.8-.1 3.8-1 3.8-2.9 0-1-.4-2.6-1.3-4.8l-2.8-6.5c-1.3-3-1.6-3.3-4.5-3.3H101c-1.4 0-2.3.1-2.7.5a8 8 0 0 0-1.2 2.4l-2.9 6.9c-1.2 2.8-1.4 4-1.4 5 0 1.8 1 2.5 3.6 2.7 1.7 0 2.6.8 2.6 2.1 0 1.2-1 1.8-2.9 1.8Zm4.8-27.9c0 1 .7 1.6 2 1.6l22.4-.2c1 0 1.9-.5 1.9-1.4a3 3 0 0 0-.2-1l-12.4-30.4c-.2-.6-.5-1-.7-1-.2 0-.6.4-.8 1l-12 30.6c-.2.2-.2.5-.2.8Zm56 5.3 3.6-38.7c.3-1.5.3-2.8.3-3.5 0-2.7-1.2-4-3.8-4.2-1.8-.1-2.6-.6-2.6-2 0-1.3 1-2 2.8-2h18.3c1.8 0 2.7.7 2.7 2 0 1.6-.3 1.7-2.5 2-1.5.2-2.4.9-2.9 2.3-.5 1.2-.6 2-.9 5.4l-3.3 38.7-.1 2.5c0 10.9 7 16.7 19.7 16.7 12.4 0 19.1-5.7 19.1-16.4v-1.9l-3-39.6c-.1-3.5-.2-4-.7-5.4-.5-1.4-1.4-2.1-3.2-2.3-2.1-.2-2.5-.6-2.5-2.2 0-1 1-1.8 2.8-1.8h12c1.8 0 2.8.7 2.8 2 0 1.4-.5 1.8-2.6 2-2.1.2-3.1 1.4-3.1 4.1 0 .8 0 2 .2 3.6l2.8 38.8.1 2.6c0 14.4-9 21.5-27 21.5-18.2 0-29-7.9-29-21v-3.2Zm68.2 11.8V11.7c0-6-.8-7.4-4.7-7.7-1.8-.2-2.5-.9-2.5-2.2 0-1 1-1.8 2.8-1.8h19.8c2 0 2.8.7 2.8 2 0 1.4-.7 1.8-2.5 2-3.3.3-4 1.7-4 7.7V61c0 3.8.3 5.1 1.2 6 .7.8 2.7 1 5.7 1h6.7c6.5 0 11.7-.7 14.8-2.5 2.5-1.4 6.7-4.7 8.6-7.5.9-1 1.5-1.5 2.1-1.5 1 0 1.8.8 1.8 1.7 0 .4-.2 1.1-.6 1.7l-8.3 13.6c-1 1.4-1.5 1.9-2.4 1.9a2 2 0 0 1-1.3-.5l-1.3-1c-.9-.7-1.5-.9-3.7-.9h-39.4c-2 0-2.8-.6-2.8-1.9 0-1.2.7-2 2.5-2 3.8-.3 4.7-1.7 4.7-7Zm48 93.2c0 6 .8 7.5 3.9 7.8 2 .2 2.6.6 2.6 2 0 1.2-1 2-2.8 2H258c-1.8 0-2.8-.6-2.8-2.1 0-1.3.7-1.7 2.6-2 3-.2 3.7-1.6 3.7-7.7v-15.3c0-3-1-4-4-4h-31.2c-2.8 0-3.8 1.2-3.8 4.1v15.2c0 6 .7 7.5 3.8 7.8 2 .2 2.6.6 2.6 2 0 1.2-1 2-2.9 2h-18.8c-2 0-2.9-.8-2.9-2.1s.6-1.7 2.5-2c3.2-.2 3.8-1.6 3.8-7.7v-49.6c0-3.4 0-4.1-.5-5.4-.4-1.4-1.3-2.2-3.1-2.4-2-.2-2.6-.7-2.6-2.1 0-1.2.8-1.8 2.8-1.8h19c1.9 0 2.8.6 2.8 2 0 1.2-.6 1.7-2.6 2-3.1.2-4 1.7-4 7.7v20.6c0 3 .9 3.8 4 3.8l31.3.1c2.8 0 3.8-1 3.8-4v-20.5c0-3.4 0-4.1-.4-5.4-.6-1.4-1.4-2.2-3.3-2.4-2-.2-2.6-.7-2.6-2.1 0-1.2 1-1.8 2.9-1.8H277c1.9 0 2.7.6 2.7 2 0 1.2-.6 1.7-2.5 2-3.2.2-4.1 1.7-4.1 6.8v50.5Zm-121.7 13.7c-1 0-1.4-.3-2.4-1.9l-7.2-12c-.4-.5-.6-1-.6-1.5 0-.9.8-1.5 1.7-1.5.8 0 1.7.5 2.7 1.8 2 2.4 6.2 5.4 9.1 6.7 3 1.3 7.5 2 13.1 2h9.6c6.2 0 7-.8 7-6.9v-13.3c0-2.5-1-3.4-3.5-3.4H172c-3.2 0-4.2.3-5 2l-.7 1.3c-.4.5-1 .8-1.7.8-.5 0-.9 0-1-.4a14 14 0 0 1-1.3-1.7l-6.9-11c-.5-.8-.7-1.4-.7-1.9 0-1 .7-1.6 1.6-1.6 1 0 1.8.5 3 2.1 3.2 3.8 7.7 5.8 13 5.8h8.7c2.3 0 3.3-.9 3.3-3.2V106c0-6.1-1-7-6.9-7h-14c-6 0-12.1.8-15.5 2a25 25 0 0 0-10.6 8.8c-.8 1.3-1.6 1.9-2.3 1.9-1 0-2-.9-2-1.8 0-.4.3-1 .8-1.8l8.1-14.2c1-1.7 1.3-2 2.6-2 .5 0 1 .2 1.5.6l1.2.8c.8.6 1.3.8 3.8.8h49.5c1.9 0 2.8.6 2.8 2 0 1.1-.7 1.8-2.5 2-2.3.1-3.4.6-4 2.3-.6 1-.7 2-.7 5v50c0 3.5.1 4.2.6 5.4.6 1.5 1.6 2.2 4 2.4 1.7 0 2.5.8 2.5 2s-1 2-2.7 2h-43.7c-1.7 0-2.6.1-3.2.5l-1 1-1.3.4ZM49.9 169c-.5 0-.7-.2-1.7-.9-1.1-.8-2-1-4-1H4.4c-1.5 0-2.5-.7-2.5-1.7 0-.7.3-1.4 1-2.2l44-62.4c.2-.2.2-.4.2-.7 0-.6-1.6-.8-6.5-.8h-2.3l-14 .3c-7.2.2-14.7 3.1-17.5 7-3 3.8-4 5-5.2 5-1 0-1.7-.8-1.7-1.8 0-.3 0-.6.3-.8l8.6-15.4c.4-.8 1.3-1.3 2.3-1.3.3 0 .5 0 .7.2.2 0 .6.3 1 .7 1 .7 1.6.9 3.8.9h70.5c2 0 2.8.6 2.8 2 0 1.1-.7 1.8-2.4 2-1.9 0-2.8.5-2.8 1.4 0 1.2 1 2.5 4 6.3l10.7 12.4a110.6 110.6 0 0 1 12.2 0c1.6 0 2.5.2 3 .2 1.4 0 1.8-.4 1.8-2V105c0-3.2 0-3.5-.5-4.7-.8-1.4-1.9-2.2-4.1-2.4-1.8 0-2.5-.8-2.5-2.1 0-1.2.8-1.8 2.7-1.8h20.6c2 0 2.8.6 2.8 2 0 1.1-.7 1.8-2.5 2-4 .1-4.8 1.6-4.8 7.7v49.6c0 6 .8 7.5 4.7 7.8 2 0 2.6.8 2.6 2s-1 2-2.8 2h-26.3c-23.2 0-38.2-10.3-38.2-26 0-5 1.7-9.6 4.8-13.2 3.4-4 6.2-5.4 14-7.6l-13-14.6a87.7 87.7 0 0 0-4.4-4.8l-.2-.2-.3-.2-.2-.2a8.5 8.5 0 0 0-5-2.4l-44.2 62.5c-.2.3-.3.5-.3.8 0 .6 1.1.8 4.2.8H25l13-.3c6.6-.2 13.3-2.8 16.7-7 2-2.5 2.8-3.4 4-3.4 1 0 1.6.6 1.6 1.5l-.1.6-8.4 14.6c-.4.5-1 .9-1.8.9Zm58-6.5c6.8 0 8.5-1 8.5-5.1v-29.6c0-3-.4-3.8-3-4.4-2.2-.6-4.7-.9-7.5-.9-16 0-24.7 6.6-24.7 18.7 0 13.2 10.1 21.3 26.6 21.3Z"
	/></svg>
